<?xml version="1.0" encoding="iso-8859-1"?>
<!-- Generator: Adobe Illustrator 19.0.0, SVG Export Plug-In . SVG Version: 6.00 Build 0)  -->
<svg version="1.1" id="Layer_1" xmlns="http://www.w3.org/2000/svg" xmlns:xlink="http://www.w3.org/1999/xlink" x="0px" y="0px"
	 viewBox="0 0 512 512" style="enable-background:new 0 0 512 512;" xml:space="preserve">
<path style="fill:#BB774B;" d="M481.173,512H30.827c-8.297,0-15.012-6.714-15.012-15.012v-91.07
	c0-41.385,33.673-75.058,75.058-75.058h48.934c4.706,0,9.133,2.199,11.962,5.952c2.844,3.738,3.768,8.591,2.492,13.12
	c-2.243,8.004-3.343,16.492-3.343,25.962v32.413c64.972-36.239,145.19-36.239,210.162,0v-32.413c0-9.47-1.1-17.958-3.343-25.962
	c-1.275-4.529-0.352-9.382,2.492-13.12c2.829-3.753,7.257-5.952,11.962-5.952h48.934c41.385,0,75.058,33.673,75.058,75.058v91.07
	C496.185,505.286,489.471,512,481.173,512z"/>
<path style="fill:#A46141;" d="M481.173,512c8.297,0,15.012-6.714,15.012-15.012v-91.07c0-41.385-33.673-75.058-75.058-75.058
	h-48.934c-4.706,0-9.133,2.199-11.962,5.952c-2.844,3.738-3.768,8.591-2.492,13.12c2.243,8.004,3.343,16.492,3.343,25.962v32.413
	c-32.486-18.119-68.783-27.179-105.081-27.179V512H481.173L481.173,512z"/>
<path style="fill:#E6EEFF;" d="M376.093,450.953c-3.195,0-6.362-1.012-9.016-3.005c-65.411-49.14-156.742-49.14-222.153,0
	c-4.544,3.431-10.657,3.973-15.73,1.422c-5.087-2.536-8.297-7.74-8.297-13.428v-60.046c0-12.255,1.451-23.397,4.456-34.084
	c4.779-19.102,14.366-37.705,27.619-53.361c2.961-3.489,7.33-5.014,11.874-5.321c4.56,0.132,8.825,2.331,11.567,5.967
	c20.039,26.548,49.052,41.765,79.587,41.765s59.548-15.217,79.587-41.765c2.741-3.636,7.007-5.834,11.567-5.967
	c4.56-0.161,8.913,1.832,11.874,5.321c13.252,15.657,22.84,34.259,27.721,53.771c2.902,10.277,4.354,21.417,4.354,33.673v60.046
	c0,5.688-3.21,10.892-8.297,13.428C380.681,450.426,378.379,450.953,376.093,450.953z"/>
<path style="fill:#DAE2F2;" d="M367.077,447.948c2.653,1.994,5.819,3.005,9.016,3.005c2.287,0,4.589-0.527,6.714-1.583
	c5.087-2.536,8.297-7.74,8.297-13.428v-60.046c0-12.255-1.451-23.397-4.354-33.673c-4.882-19.512-14.469-38.115-27.721-53.771
	c-2.961-3.489-7.316-5.483-11.874-5.321c-4.56,0.132-8.825,2.331-11.567,5.967c-20.039,26.548-49.052,41.765-79.587,41.765v80.233
	C295.185,411.094,334.371,423.378,367.077,447.948z"/>
<path style="fill:#5C5F66;" d="M256.1,0.789c106.064,0.08,191.311,84.756,194.933,188.108c18.368,10.657,30.14,30.389,30.14,51.895
	c0,33.116-26.93,60.046-60.046,60.046h-65.148c-5.395,0-10.364-2.888-13.032-7.579c-2.683-4.677-2.639-10.438,0.117-15.071
	c11.611-19.659,18.017-43.598,18.017-67.42v-75.058c0-138.267-210.162-139.329-210.162,0v75.058c0,23.822,6.406,47.762,18.017,67.42
	c2.756,4.633,2.8,10.394,0.117,15.071c-2.668,4.692-7.638,7.579-13.032,7.579H90.873c-33.116,0-60.046-26.93-60.046-60.046
	c0-21.55,11.816-41.311,30.243-51.954C66.002,83.866,151.007,0.709,256.1,0.789z"/>
<path style="fill:#53565C;" d="M451.033,188.896C447.412,85.545,362.164,0.869,256.101,0.788c-0.035,0-0.066,0.005-0.101,0.005
	v30.819c52.54,0.134,105.081,34.965,105.081,104.099v75.058c0,23.822-6.406,47.762-18.017,67.42
	c-2.756,4.633-2.8,10.394-0.117,15.071c2.668,4.692,7.638,7.579,13.032,7.579h65.148c33.116,0,60.046-26.93,60.046-60.046
	C481.173,219.286,469.401,199.554,451.033,188.896z"/>
<path style="fill:#FDD9BC;" d="M351.474,39.937C322.952,12.016,289.025-0.295,256,0.005
	c-69.654,0.601-135.104,56.143-135.104,135.705v75.058c0,83.163,60.648,150.116,135.104,150.116
	c72.956,0,135.104-65.151,135.104-150.116v-75.058C391.104,99.983,376.994,66.057,351.474,39.937z"/>
<path style="fill:#FCCBAC;" d="M391.104,135.711v75.058c0,84.964-62.148,150.116-135.104,150.116V0.005
	c33.024-0.3,66.951,12.01,95.473,39.932C376.994,66.057,391.104,99.983,391.104,135.711z"/>
<g>
	<circle style="fill:#5C5F66;" cx="210.962" cy="150.726" r="15.012"/>
	<circle style="fill:#5C5F66;" cx="301.032" cy="150.726" r="15.012"/>
</g>
<path style="fill:#FBC7A7;" d="M256,240.792c-8.297,0-15.012-6.714-15.012-15.012v-45.035c0-8.297,6.714-15.012,15.012-15.012
	s15.012,6.714,15.012,15.012v45.035C271.012,234.077,264.298,240.792,256,240.792z"/>
<g>
	<path style="fill:#5C5F66;" d="M256,300.838c-3.914,0-7.814-1.51-10.511-4.515c-3.005-2.697-4.5-6.597-4.5-10.496
		c0-3.914,1.495-7.814,4.5-10.511c5.395-5.702,15.613-5.702,21.007,0c3.005,2.697,4.515,6.597,4.515,10.511
		c0,3.899-1.51,7.799-4.515,10.496C263.799,299.328,259.899,300.838,256,300.838z"/>
	<path style="fill:#5C5F66;" d="M297.502,268.293c-5.834,0-11.391-3.431-13.824-9.148c-4.721-11.156-15.583-18.354-27.677-18.354
		c-12.094,0-22.957,7.198-27.677,18.339c-3.255,7.652-12.094,11.171-19.673,7.975c-7.638-3.225-11.2-12.035-7.975-19.673
		c9.426-22.268,31.137-36.664,55.326-36.664c24.174,0,45.885,14.381,55.326,36.649c3.24,7.638-0.337,16.449-7.96,19.688
		C301.445,267.913,299.467,268.293,297.502,268.293z"/>
</g>
<path style="fill:#FAB794;" d="M271.012,225.78v-45.035c0-8.297-6.714-15.012-15.012-15.012v75.058
	C264.298,240.792,271.012,234.077,271.012,225.78z"/>
<path style="fill:#53565C;" d="M283.677,259.146c2.434,5.717,7.989,9.148,13.824,9.148c1.965,0,3.943-0.381,5.864-1.188
	c7.623-3.24,11.2-12.05,7.96-19.688c-9.441-22.268-31.152-36.649-55.326-36.649v30.023
	C268.094,240.792,278.957,247.989,283.677,259.146z"/>
<g>
</g>
<g>
</g>
<g>
</g>
<g>
</g>
<g>
</g>
<g>
</g>
<g>
</g>
<g>
</g>
<g>
</g>
<g>
</g>
<g>
</g>
<g>
</g>
<g>
</g>
<g>
</g>
<g>
</g>
</svg>
